<svg xmlns="http://www.w3.org/2000/svg" width="135.444" height="28.613" viewBox="0 0 135.444 28.613"><path d="M108.006,8l-1.126,4.144,6.444-4.168L109.11,23.7l4.28,0L119.616.48" transform="translate(-99.297 -0.48)" fill="#08cc7f"/><path d="M2.573,88.527.8,95.137H9.573l3.59-13.448L2.573,88.527m30.475-5.82A2.8,2.8,0,0,1,31.8,84.463a5.007,5.007,0,0,1-2.591.56H25.674l1.242-4.632h3.538a3.457,3.457,0,0,1,2.291.565,1.645,1.645,0,0,1,.3,1.759m3.664-.1q.676-2.509-.559-3.86T31.829,77.41h-7.9L19.179,95.145h3.837L24.931,88h2.516a2.779,2.779,0,0,1,1.334.272,1.21,1.21,0,0,1,.575.972l.685,5.9h4.11l-.666-5.5A2.172,2.172,0,0,0,31.8,87.475a7.285,7.285,0,0,0,3.167-1.816,6.619,6.619,0,0,0,1.747-3.038M46.037,88.8a5.742,5.742,0,0,1-1.482,2.745,3.347,3.347,0,0,1-2.4.951,2,2,0,0,1-1.93-.929,3.714,3.714,0,0,1-.036-2.7A5.819,5.819,0,0,1,41.707,86.1a3.4,3.4,0,0,1,2.435-1,1.916,1.916,0,0,1,1.887.96,3.906,3.906,0,0,1,.014,2.752Zm1.681-6.276-.48,1.794a2.843,2.843,0,0,0-1.2-1.544A4.049,4.049,0,0,0,43.82,82.2a6.268,6.268,0,0,0-3.11.836A8.222,8.222,0,0,0,38.1,85.395a10.375,10.375,0,0,0-1.637,3.46,7.453,7.453,0,0,0-.207,3.424,3.732,3.732,0,0,0,1.358,2.28,4.291,4.291,0,0,0,2.688.8,6.044,6.044,0,0,0,4.546-2.066l-.5,1.87h3.71l3.388-12.636H47.729Zm17.06,0H53.989l-.754,2.816h6.278l-8.3,7.17L50.5,95.152H61.642l.754-2.816H55.669L64.1,85.059m10.179,3.717a5.779,5.779,0,0,1-1.483,2.788,3.344,3.344,0,0,1-2.376.922q-2.917,0-1.92-3.71A5.743,5.743,0,0,1,69.987,86a3.4,3.4,0,0,1,2.418-.936,1.915,1.915,0,0,1,1.88.933,3.977,3.977,0,0,1-.009,2.779M76.447,83a6.1,6.1,0,0,0-3.274-.8,8.815,8.815,0,0,0-3.739.793A8.084,8.084,0,0,0,66.5,85.284a9.261,9.261,0,0,0-1.746,3.488,6.716,6.716,0,0,0-.122,3.483,3.764,3.764,0,0,0,1.7,2.287,6.221,6.221,0,0,0,3.317.8,8.636,8.636,0,0,0,3.7-.8,8.166,8.166,0,0,0,2.917-2.295,9.29,9.29,0,0,0,1.744-3.488,6.668,6.668,0,0,0,.129-3.488A3.787,3.787,0,0,0,76.46,82.98M89.692,85.9l.951-3.438a2.8,2.8,0,0,0-1.272-.25,5.071,5.071,0,0,0-2.452.636,5.351,5.351,0,0,0-1.737,1.511l.493-1.851-1.077,0H81.952L78.542,95.14H82.3l1.769-6.6a4.177,4.177,0,0,1,1.389-2.252,3.832,3.832,0,0,1,2.495-.808,3.7,3.7,0,0,1,1.73.422m10.472,2.938a5.629,5.629,0,0,1-1.473,2.7,3.377,3.377,0,0,1-2.395.936,1.959,1.959,0,0,1-1.9-.944,3.782,3.782,0,0,1-.029-2.742,5.7,5.7,0,0,1,1.494-2.752,3.387,3.387,0,0,1,2.409-.961,1.871,1.871,0,0,1,1.859.994,3.985,3.985,0,0,1,.02,2.766m2.631-5.819a4.137,4.137,0,0,0-2.666-.836,5.9,5.9,0,0,0-2.7.648,5.637,5.637,0,0,0-2.08,1.769l.013-.086L95.97,82.5H92.3L91.359,86l-.029.122-3.86,14.4h3.767l1.944-7.249a2.6,2.6,0,0,0,1.187,1.517,4.213,4.213,0,0,0,2.223.545,6.548,6.548,0,0,0,3.127-.793,7.741,7.741,0,0,0,2.581-2.28,10.074,10.074,0,0,0,1.616-3.424,7.623,7.623,0,0,0,.222-3.463,3.859,3.859,0,0,0-1.351-2.352m12.485,5.765a5.732,5.732,0,0,1-1.48,2.738,3.351,3.351,0,0,1-2.395.949,1.989,1.989,0,0,1-1.93-.929,3.706,3.706,0,0,1-.036-2.7,5.8,5.8,0,0,1,1.51-2.766,3.405,3.405,0,0,1,2.435-1,1.925,1.925,0,0,1,1.887.958,3.916,3.916,0,0,1,.011,2.752Zm1.68-6.28L116.47,84.3a2.818,2.818,0,0,0-1.2-1.544,4.044,4.044,0,0,0-2.216-.572,6.3,6.3,0,0,0-3.117.836,8.231,8.231,0,0,0-2.609,2.352,10.349,10.349,0,0,0-1.637,3.46,7.419,7.419,0,0,0-.207,3.428,3.718,3.718,0,0,0,1.358,2.28,4.325,4.325,0,0,0,2.688.8,5.944,5.944,0,0,0,2.516-.55,5.883,5.883,0,0,0,2.025-1.518l-.5,1.871h3.71l3.387-12.631h-3.71Zm19.291,0,0,0h-2.28c-.073,0-.137,0-.2.005h-1.183l-.608.844-.15.2-.064.1-4.807,6.7-.994-7.842h-3.937l1.994,11.916-4.4,6.1h3.924l1.065-1.51c.03-.044.057-.081.093-.129l1.244-1.766.036-.05,5.571-7.9,4.7-6.648.007,0h0Z" transform="translate(-0.8 -71.911)" fill="#062265"/></svg>