<svg xmlns="http://www.w3.org/2000/svg" width="22.333" height="17.934" viewBox="0 0 22.333 17.934">
  <path id="Icon_awesome-angle-double-right" data-name="Icon awesome-angle-double-right" d="M12.921,16.666,5.3,24.286a1.339,1.339,0,0,1-1.9,0L2.135,23.02a1.339,1.339,0,0,1,0-1.9l5.4-5.4-5.4-5.4a1.339,1.339,0,0,1,0-1.9L3.4,7.141a1.339,1.339,0,0,1,1.9,0l7.62,7.62a1.341,1.341,0,0,1,.006,1.9Zm10.757-1.9-7.62-7.62a1.339,1.339,0,0,0-1.9,0L12.893,8.408a1.339,1.339,0,0,0,0,1.9l5.4,5.4-5.4,5.4a1.339,1.339,0,0,0,0,1.9l1.266,1.266a1.339,1.339,0,0,0,1.9,0l7.62-7.62a1.332,1.332,0,0,0,0-1.894Z" transform="translate(-1.74 -6.747)" fill="#062265"/>
</svg>
