<svg xmlns="http://www.w3.org/2000/svg" width="339" height="76" viewBox="0 0 339 76">
  <g id="Payment_button" data-name="Payment button" transform="translate(-1228 -3732)">
    <path id="Rectangle_24" data-name="Rectangle 24" d="M20,0H339a0,0,0,0,1,0,0V56a20,20,0,0,1-20,20H0a0,0,0,0,1,0,0V20A20,20,0,0,1,20,0Z" transform="translate(1228 3732)" fill="#fff"/>
    <g id="Group_145" data-name="Group 145" transform="translate(-8 12)">
      <g id="razorpay" transform="translate(1279 3739)">
        <path id="Path_263" data-name="Path 263" d="M108.4,10.649l-1.522,5.6,8.713-5.634-5.7,21.26,5.787,0L124.1.48" transform="translate(-96.628 -0.48)" fill="#08cc7f"/>
        <path id="Path_264" data-name="Path 264" d="M3.2,92.439.8,101.377H12.661L17.515,83.2,3.2,92.439M44.4,84.57a3.786,3.786,0,0,1-1.682,2.375,6.769,6.769,0,0,1-3.5.758H34.43l1.68-6.263h4.784a4.673,4.673,0,0,1,3.1.764,2.225,2.225,0,0,1,.408,2.377m4.953-.135q.913-3.392-.756-5.219T42.751,77.41H32.074l-6.427,23.978h5.187l2.59-9.665h3.4a3.757,3.757,0,0,1,1.8.367,1.635,1.635,0,0,1,.777,1.314l.926,7.983H45.89l-.9-7.442q-.275-2.493-2.281-2.928a9.849,9.849,0,0,0,4.281-2.455,8.949,8.949,0,0,0,2.362-4.107m12.608,8.35a7.763,7.763,0,0,1-2,3.711,4.525,4.525,0,0,1-3.24,1.285,2.7,2.7,0,0,1-2.609-1.256,5.021,5.021,0,0,1-.048-3.653,7.866,7.866,0,0,1,2.046-3.74A4.6,4.6,0,0,1,59.4,87.8a2.591,2.591,0,0,1,2.551,1.3,5.28,5.28,0,0,1,.019,3.721Zm2.273-8.485-.649,2.426a3.843,3.843,0,0,0-1.628-2.088,5.475,5.475,0,0,0-2.993-.773,8.474,8.474,0,0,0-4.2,1.131,11.116,11.116,0,0,0-3.528,3.189,14.027,14.027,0,0,0-2.213,4.678,10.076,10.076,0,0,0-.28,4.629,5.046,5.046,0,0,0,1.836,3.083,5.8,5.8,0,0,0,3.634,1.082,8.171,8.171,0,0,0,6.147-2.793l-.677,2.528h5.016l4.58-17.084H64.247Zm23.064,0H72.711l-1.02,3.808h8.487l-11.22,9.694L68,101.4H83.056l1.02-3.808H74.982l11.393-9.838m13.762,5.026a7.813,7.813,0,0,1-2.005,3.769,4.521,4.521,0,0,1-3.212,1.247q-3.943,0-2.6-5.016a7.764,7.764,0,0,1,2.016-3.754,4.6,4.6,0,0,1,3.269-1.266,2.59,2.59,0,0,1,2.542,1.261,5.377,5.377,0,0,1-.013,3.757m2.936-7.812a8.248,8.248,0,0,0-4.426-1.079,11.917,11.917,0,0,0-5.055,1.073,10.93,10.93,0,0,0-3.962,3.1,12.52,12.52,0,0,0-2.36,4.716,9.08,9.08,0,0,0-.164,4.71,5.088,5.088,0,0,0,2.3,3.093,8.41,8.41,0,0,0,4.484,1.08,11.675,11.675,0,0,0,5.006-1.08,11.04,11.04,0,0,0,3.943-3.1,12.559,12.559,0,0,0,2.358-4.716,9.015,9.015,0,0,0,.174-4.716,5.119,5.119,0,0,0-2.281-3.1m17.889,3.943,1.285-4.649a3.779,3.779,0,0,0-1.72-.338,6.855,6.855,0,0,0-3.315.86,7.235,7.235,0,0,0-2.348,2.043l.667-2.5-1.456.006h-3.576l-4.61,17.077h5.086l2.392-8.927a5.647,5.647,0,0,1,1.878-3.044,5.181,5.181,0,0,1,3.373-1.092,5,5,0,0,1,2.339.57m14.158,3.972a7.611,7.611,0,0,1-1.991,3.653,4.565,4.565,0,0,1-3.238,1.266,2.648,2.648,0,0,1-2.571-1.276,5.113,5.113,0,0,1-.039-3.707,7.7,7.7,0,0,1,2.02-3.721,4.58,4.58,0,0,1,3.257-1.3,2.529,2.529,0,0,1,2.513,1.343,5.388,5.388,0,0,1,.027,3.74m3.557-7.867a5.593,5.593,0,0,0-3.6-1.131,7.977,7.977,0,0,0-3.653.876,7.621,7.621,0,0,0-2.812,2.391l.017-.116.853-2.716H124.5l-1.266,4.726-.039.164-5.219,19.468h5.093l2.629-9.8a3.517,3.517,0,0,0,1.6,2.051,5.7,5.7,0,0,0,3.006.737,8.853,8.853,0,0,0,4.228-1.073,10.465,10.465,0,0,0,3.489-3.083,13.619,13.619,0,0,0,2.184-4.629,10.307,10.307,0,0,0,.3-4.682,5.217,5.217,0,0,0-1.827-3.18m16.879,7.794a7.75,7.75,0,0,1-2,3.7,4.531,4.531,0,0,1-3.238,1.282,2.689,2.689,0,0,1-2.609-1.256,5.011,5.011,0,0,1-.048-3.653,7.845,7.845,0,0,1,2.041-3.74A4.6,4.6,0,0,1,153,87.776a2.6,2.6,0,0,1,2.551,1.3,5.294,5.294,0,0,1,.014,3.721Zm2.271-8.49-.65,2.426a3.81,3.81,0,0,0-1.624-2.088,5.468,5.468,0,0,0-3-.773,8.515,8.515,0,0,0-4.214,1.131,11.128,11.128,0,0,0-3.528,3.18,13.992,13.992,0,0,0-2.213,4.678,10.03,10.03,0,0,0-.28,4.635,5.026,5.026,0,0,0,1.836,3.083,5.848,5.848,0,0,0,3.634,1.077,8.036,8.036,0,0,0,3.4-.744,7.954,7.954,0,0,0,2.738-2.052l-.677,2.53h5.016L162.856,84.3H157.84Zm26.082.006,0,0h-3.083c-.1,0-.186,0-.275.007h-1.6l-.821,1.14-.2.271-.087.135-6.5,9.054-1.343-10.6h-5.323l2.7,16.111-5.953,8.244h5.306l1.44-2.042c.041-.06.077-.11.126-.174l1.682-2.387.048-.068,7.532-10.679,6.35-8.988.01-.006h0Z" transform="translate(-0.8 -69.975)" fill="#062265"/>
      </g>
      <path id="Icon_awesome-angle-double-right" data-name="Icon awesome-angle-double-right" d="M12.921,16.666,5.3,24.286a1.339,1.339,0,0,1-1.9,0L2.135,23.02a1.339,1.339,0,0,1,0-1.9l5.4-5.4-5.4-5.4a1.339,1.339,0,0,1,0-1.9L3.4,7.141a1.339,1.339,0,0,1,1.9,0l7.62,7.62a1.341,1.341,0,0,1,.006,1.9Zm10.757-1.9-7.62-7.62a1.339,1.339,0,0,0-1.9,0L12.893,8.408a1.339,1.339,0,0,0,0,1.9l5.4,5.4-5.4,5.4a1.339,1.339,0,0,0,0,1.9l1.266,1.266a1.339,1.339,0,0,0,1.9,0l7.62-7.62a1.332,1.332,0,0,0,0-1.894Z" transform="translate(1503.677 3744.077)" fill="#062265"/>
    </g>
  </g>
</svg>
