<svg xmlns="http://www.w3.org/2000/svg" width="16.888" height="16.917" viewBox="0 0 16.888 16.917">
  <path id="Icon_feather-phone-call" data-name="Icon feather-phone-call" d="M12.65,4.432a3.664,3.664,0,0,1,2.895,2.895M12.65,1.5a6.6,6.6,0,0,1,5.826,5.819m-.733,5.848v2.2a1.466,1.466,0,0,1-1.6,1.466,14.5,14.5,0,0,1-6.325-2.25,14.291,14.291,0,0,1-4.4-4.4,14.5,14.5,0,0,1-2.25-6.354,1.466,1.466,0,0,1,1.458-1.6h2.2A1.466,1.466,0,0,1,8.3,3.493,9.41,9.41,0,0,0,8.81,5.553,1.466,1.466,0,0,1,8.48,7.1l-.931.931a11.726,11.726,0,0,0,4.4,4.4l.931-.931a1.466,1.466,0,0,1,1.546-.33,9.41,9.41,0,0,0,2.059.513A1.466,1.466,0,0,1,17.744,13.168Z" transform="translate(-2.417 -0.672)" fill="none" stroke="#08cc7f" stroke-linecap="round" stroke-linejoin="round" stroke-width="1.5"/>
</svg>
