<svg xmlns="http://www.w3.org/2000/svg" width="61.717" height="54.351" viewBox="0 0 61.717 54.351">
  <g id="Group_170" data-name="Group 170" transform="translate(-923.878 -1132.155)">
    <path id="Path_130" data-name="Path 130" d="M436.247,190.348a19.814,19.814,0,0,1,30.629-24.118,19.508,19.508,0,0,1,4.388,5.582" transform="translate(498.566 976.892)" fill="none" stroke="#08cc7f" stroke-linecap="round" stroke-linejoin="round" stroke-width="12"/>
    <path id="Path_269" data-name="Path 269" d="M436.247,190.348a19.814,19.814,0,0,1,30.629-24.118,19.508,19.508,0,0,1,4.388,5.582" transform="matrix(-0.996, 0.087, -0.087, -0.996, 1425.371, 1299.398)" fill="none" stroke="#08cc7f" stroke-linecap="round" stroke-linejoin="round" stroke-width="12"/>
    <path id="Path_267" data-name="Path 267" d="M436.247,190.348a19.814,19.814,0,0,1,30.629-24.118,19.508,19.508,0,0,1,4.388,5.582" transform="translate(492.996 980.892)" fill="none" stroke="#062265" stroke-linecap="round" stroke-linejoin="round" stroke-width="6"/>
    <path id="Path_268" data-name="Path 268" d="M436.247,190.348a19.814,19.814,0,0,1,30.629-24.118,19.508,19.508,0,0,1,4.388,5.582" transform="matrix(-0.998, 0.07, -0.07, -0.998, 1421.362, 1304.514)" fill="none" stroke="#062265" stroke-linecap="round" stroke-linejoin="round" stroke-width="6"/>
  </g>
</svg>
