<svg xmlns="http://www.w3.org/2000/svg" width="24.672" height="23.676" viewBox="0 0 24.672 23.676"><path d="M8.374,1.037a3.575,3.575,0,0,1,3.54,3.075l0,.014a11.84,11.84,0,0,0,.645,2.587,3.584,3.584,0,0,1-.806,3.768l-.006.006-.478.478a15.114,15.114,0,0,0,4.1,4.1l.478-.478.006-.006a3.575,3.575,0,0,1,3.772-.8,11.831,11.831,0,0,0,2.584.643l.013,0A3.575,3.575,0,0,1,25.3,18.034v3.093a3.575,3.575,0,0,1-3.575,3.586c-.107,0-.215,0-.322-.015l-.027,0a22.141,22.141,0,0,1-9.6-3.414A21.874,21.874,0,0,1,5.1,14.605,22.138,22.138,0,0,1,1.685,4.958l0-.023a3.575,3.575,0,0,1,3.557-3.9Zm.569,3.49a.578.578,0,0,0-.568-.49H5.241a.575.575,0,0,0-.571.619A19.124,19.124,0,0,0,7.62,12.979l.007.011a18.854,18.854,0,0,0,5.764,5.764l.012.007a19.127,19.127,0,0,0,8.282,2.951.575.575,0,0,0,.617-.576s0,0,0-.006V18.018q0-.019,0-.037a.575.575,0,0,0-.49-.583,14.842,14.842,0,0,1-3.235-.807.573.573,0,0,0-.608.126L16.656,18.03a1.5,1.5,0,0,1-1.8.243,18.109,18.109,0,0,1-6.788-6.788,1.5,1.5,0,0,1,.243-1.8L9.623,8.37a.577.577,0,0,0,.128-.6A14.851,14.851,0,0,1,8.943,4.528Zm14.108-.912c.9,0,1.553.661,2.272,2.281a12.928,12.928,0,0,1,1.008,3.673,1.5,1.5,0,0,1-2.83.843,38.464,38.464,0,0,1-1.609-3.53c-.423-1.123-.574-1.859-.161-2.529A1.541,1.541,0,0,1,23.051,3.616ZM19.715,6.045a1.68,1.68,0,0,1,1.407.826,5.448,5.448,0,0,1,.387.672,7.92,7.92,0,0,1,.653,1.918,1.5,1.5,0,0,1-2.788,1.008c-.393-.717-.69-1.306-.881-1.751a2.025,2.025,0,0,1-.085-1.929A1.525,1.525,0,0,1,19.715,6.045Z" transform="translate(-1.668 -1.037)" fill="#062265"/></svg>